<?xml version="1.0" encoding="iso-8859-1"?>
<!-- Generator: Adobe Illustrator 19.0.0, SVG Export Plug-In . SVG Version: 6.00 Build 0)  -->
<svg version="1.1" id="Layer_1" xmlns="http://www.w3.org/2000/svg" xmlns:xlink="http://www.w3.org/1999/xlink" x="0px" y="0px"
	 viewBox="0 0 512 512" style="enable-background:new 0 0 512 512;" xml:space="preserve">
<g>
	<path style="fill:#5A5A28;" d="M71.901,371.82l34.648-180.17c3.119-16.219,17.312-27.944,33.828-27.944h247.203
		c7.624,0,14.752,2.497,20.525,6.781c6.751,5.01,11.648,12.463,13.316,21.221l26.684,140.088"/>
	<polygon style="fill:#5A5A28;" points="504.134,403.837 7.866,403.837 7.866,379.824 504.134,324.325 	"/>
</g>
<g>
	<polygon style="fill:#7B7B53;" points="288.017,403.837 7.866,403.837 7.866,379.824 288.017,347.806 	"/>
	<path style="fill:#7B7B53;" d="M71.901,371.82l34.648-180.17c3.119-16.219,17.312-27.944,33.828-27.944h147.64v184.1L71.901,371.82
		z"/>
</g>
<polygon style="fill:#FA9C1C;" points="87.909,299.781 71.901,371.82 448.104,331.798 440.1,299.781 "/>
<polygon style="fill:#FBB049;" points="87.909,299.781 71.901,371.82 280.013,347.806 280.013,299.781 "/>
<g>
	<rect x="111.925" y="315.933" style="fill:#1D1D1B;" width="24.013" height="15.732"/>
	<rect x="151.946" y="315.933" style="fill:#1D1D1B;" width="24.013" height="15.732"/>
	<rect x="191.968" y="315.933" style="fill:#1D1D1B;" width="24.013" height="15.732"/>
	<rect x="231.989" y="315.933" style="fill:#1D1D1B;" width="24.013" height="15.732"/>
	<rect x="272.01" y="315.933" style="fill:#1D1D1B;" width="24.013" height="15.732"/>
	<rect x="312.031" y="315.933" style="fill:#1D1D1B;" width="24.013" height="15.732"/>
</g>
<g>
	<path style="fill:#FFFFFF;" d="M336.612,126.432l-84.899,84.899c-12.503,12.503-12.503,32.776,0,45.28
		c12.503,12.504,32.775,12.504,45.28,0l130.178-130.178C402.164,101.425,361.619,101.425,336.612,126.432"/>
</g>
<polyline style="fill:#FA9C1C;" points="361.68,191.924 322.061,186.264 316.4,146.644 282.441,180.603 288.101,220.223 
	327.72,225.883 361.68,191.924 "/>
<polyline style="fill:#FBB049;" points="395.64,157.964 356.02,152.304 350.36,112.685 316.4,146.644 322.061,186.264 
	361.68,191.924 395.64,157.964 "/>
<path style="fill:#1D1D1B;" d="M454.159,321.999l-25.011-131.309c-1.993-10.46-7.802-19.718-16.356-26.066
	c-2.426-1.801-5.004-3.314-7.696-4.542l33.198-33.198l-5.562-5.563c-28.033-28.033-73.647-28.033-101.683,0l-35.024,35.025v-0.052
	H140.377c-20.253,0-37.728,14.435-41.552,34.324l-33.632,174.88L0,372.789v38.914h512V315.53L454.159,321.999z M413.694,193.635
	l18.807,98.734H227.534l24.726-24.726c6.49,4.337,14.112,6.665,22.093,6.665c10.653,0,20.669-4.149,28.202-11.682l90.098-90.098
	c3.875,0.747,7.534,2.332,10.765,4.73C408.792,181.246,412.442,187.063,413.694,193.635z M415.66,127.272l-22.8,22.8l-29.886-4.269
	l-3.585-25.097C377.637,112.752,399.28,114.937,415.66,127.272z M342.174,132.447c0.859-0.859,1.746-1.672,2.646-2.464l4.246,29.725
	l29.886,4.27l-20.055,20.055l-29.886-4.27l-4.27-29.886L342.174,132.447z M310.839,163.783l4.27,29.885l29.885,4.271l-20.055,20.055
	l-29.886-4.269l-4.27-29.886L310.839,163.783z M311.034,231.898l-19.604,19.604c-4.561,4.562-10.626,7.074-17.077,7.074
	c-3.729,0-7.318-0.864-10.574-2.454l12.903-12.903l-11.123-11.124l-12.904,12.904c-1.59-3.255-2.454-6.844-2.454-10.573
	c0-6.451,2.513-12.517,7.074-17.077l19.603-19.604l4.27,29.885L311.034,231.898z M114.273,193.588
	c2.402-12.494,13.38-21.563,26.104-21.563h139.97l-34.195,34.195c-7.533,7.533-11.682,17.548-11.682,28.203
	c0,7.981,2.329,15.604,6.665,22.093l-35.85,35.85H95.277L114.273,193.588z M87.721,331.659h8.193v-15.732h-5.167l1.506-7.829
	h343.245l1.491,7.829h-4.894v8.539l-16.008,1.79v-10.329h-24.013v13.014l-16.008,1.79v-14.804h-24.013v15.732h15.724L81.565,363.667
	L87.721,331.659z M496.268,395.971H15.732v-9.112l480.537-53.739V395.971z"/>
<g>
</g>
<g>
</g>
<g>
</g>
<g>
</g>
<g>
</g>
<g>
</g>
<g>
</g>
<g>
</g>
<g>
</g>
<g>
</g>
<g>
</g>
<g>
</g>
<g>
</g>
<g>
</g>
<g>
</g>
</svg>
