<?xml version="1.0" encoding="iso-8859-1"?>
<!-- Generator: Adobe Illustrator 19.0.0, SVG Export Plug-In . SVG Version: 6.00 Build 0)  -->
<svg version="1.1" id="Layer_1" xmlns="http://www.w3.org/2000/svg" xmlns:xlink="http://www.w3.org/1999/xlink" x="0px" y="0px"
	 viewBox="0 0 512 512" style="enable-background:new 0 0 512 512;" xml:space="preserve">
<g>
	<g>
		<polygon points="108.134,302.747 67.068,358.548 450.303,335.115 450.303,302.747 		"/>
	</g>
</g>
<g>
	<g>
		<path d="M336.539,220.617H190.984c-14.554,0-28.373,7.317-36.964,19.067l-31.391,43.239H288.9l52.351-52.651
			C339.331,227.295,337.764,224.865,336.539,220.617z"/>
	</g>
</g>
<g>
	<g>
		<path d="M435.558,221.582l-16.97,17.24c-9.744,9.744-22.542,14.615-35.34,14.615c-9.851,0-19.696-2.899-28.154-8.67
			l-38.155,38.155h133.365v-43.051C450.303,230.832,444.106,223.279,435.558,221.582z"/>
	</g>
</g>
<g>
	<g>
		<path d="M0,382.522v1.15c0,29.888,24.357,53.602,54.247,53.602h386.204c29.888,0,53.749-23.713,53.749-53.602v-31.37L0,382.522z"
			/>
	</g>
</g>
<g>
	<g>
		<path d="M410.435,133.647l-48.512,48.512c-5.695,5.695-8.832,13.268-8.832,21.323c0,8.054,3.137,15.626,8.832,21.321
			c5.694,5.695,13.267,8.832,21.323,8.832c8.054,0,15.626-3.137,21.321-8.832l48.512-48.512
			c28.312-28.311,48.491-63.173,58.92-101.565C473.61,85.156,438.748,105.336,410.435,133.647z"/>
	</g>
</g>
<g>
</g>
<g>
</g>
<g>
</g>
<g>
</g>
<g>
</g>
<g>
</g>
<g>
</g>
<g>
</g>
<g>
</g>
<g>
</g>
<g>
</g>
<g>
</g>
<g>
</g>
<g>
</g>
<g>
</g>
</svg>
